<mxfile host="app.diagrams.net" agent="Mozilla/5.0 (Windows NT 10.0; Win64; x64) AppleWebKit/537.36 (KHTML, like Gecko) Chrome/138.0.0.0 Safari/537.36" version="28.0.3">
  <diagram name="Page-1" id="uGpd8l9ERffr2EMeTkIL">
    <mxGraphModel dx="983" dy="530" grid="1" gridSize="10" guides="1" tooltips="1" connect="1" arrows="1" fold="1" page="1" pageScale="1" pageWidth="850" pageHeight="1100" math="0" shadow="0">
      <root>
        <mxCell id="0" />
        <mxCell id="1" parent="0" />
        <mxCell id="16CsraEskKoKWdKYDOCm-26" value="" style="rounded=0;whiteSpace=wrap;html=1;fillColor=#f5f5f5;gradientColor=#b3b3b3;strokeColor=#666666;" vertex="1" parent="1">
          <mxGeometry x="120" y="180" width="520" height="400" as="geometry" />
        </mxCell>
        <mxCell id="16CsraEskKoKWdKYDOCm-1" value="" style="rounded=0;whiteSpace=wrap;html=1;fillColor=#1ba1e2;strokeColor=#006EAF;fontColor=#ffffff;" vertex="1" parent="1">
          <mxGeometry x="170" y="250" width="440" height="300" as="geometry" />
        </mxCell>
        <mxCell id="16CsraEskKoKWdKYDOCm-11" value="" style="edgeStyle=orthogonalEdgeStyle;rounded=0;orthogonalLoop=1;jettySize=auto;html=1;" edge="1" parent="1" source="16CsraEskKoKWdKYDOCm-2" target="16CsraEskKoKWdKYDOCm-10">
          <mxGeometry relative="1" as="geometry" />
        </mxCell>
        <mxCell id="16CsraEskKoKWdKYDOCm-2" value="" style="aspect=fixed;sketch=0;html=1;dashed=0;whitespace=wrap;verticalLabelPosition=bottom;verticalAlign=top;fillColor=#2875E2;strokeColor=#ffffff;points=[[0.005,0.63,0],[0.1,0.2,0],[0.9,0.2,0],[0.5,0,0],[0.995,0.63,0],[0.72,0.99,0],[0.5,1,0],[0.28,0.99,0]];shape=mxgraph.kubernetes.icon2;kubernetesLabel=1;prIcon=pod" vertex="1" parent="1">
          <mxGeometry x="372.6" y="250" width="41.67" height="40" as="geometry" />
        </mxCell>
        <mxCell id="16CsraEskKoKWdKYDOCm-24" style="edgeStyle=orthogonalEdgeStyle;rounded=0;orthogonalLoop=1;jettySize=auto;html=1;" edge="1" parent="1" source="16CsraEskKoKWdKYDOCm-3" target="16CsraEskKoKWdKYDOCm-21">
          <mxGeometry relative="1" as="geometry" />
        </mxCell>
        <mxCell id="16CsraEskKoKWdKYDOCm-3" value="Azure storage Account" style="image;aspect=fixed;html=1;points=[];align=center;fontSize=12;image=img/lib/azure2/storage/Storage_Accounts.svg;" vertex="1" parent="1">
          <mxGeometry x="192.08" y="190" width="37.5" height="30" as="geometry" />
        </mxCell>
        <mxCell id="16CsraEskKoKWdKYDOCm-9" style="edgeStyle=orthogonalEdgeStyle;rounded=0;orthogonalLoop=1;jettySize=auto;html=1;startSize=10;endSize=7;jumpSize=11;curved=1;dashed=1;strokeWidth=2;" edge="1" parent="1" source="16CsraEskKoKWdKYDOCm-4" target="16CsraEskKoKWdKYDOCm-3">
          <mxGeometry relative="1" as="geometry" />
        </mxCell>
        <mxCell id="16CsraEskKoKWdKYDOCm-4" value="Persistent Volume&lt;br&gt;4Gi" style="aspect=fixed;sketch=0;html=1;dashed=0;whitespace=wrap;verticalLabelPosition=bottom;verticalAlign=top;fillColor=#2875E2;strokeColor=#ffffff;points=[[0.005,0.63,0],[0.1,0.2,0],[0.9,0.2,0],[0.5,0,0],[0.995,0.63,0],[0.72,0.99,0],[0.5,1,0],[0.28,0.99,0]];shape=mxgraph.kubernetes.icon2;kubernetesLabel=1;prIcon=pv" vertex="1" parent="1">
          <mxGeometry x="187.91000000000003" y="451.5" width="41.67" height="40" as="geometry" />
        </mxCell>
        <mxCell id="16CsraEskKoKWdKYDOCm-8" style="edgeStyle=orthogonalEdgeStyle;rounded=0;orthogonalLoop=1;jettySize=auto;html=1;" edge="1" parent="1" source="16CsraEskKoKWdKYDOCm-6" target="16CsraEskKoKWdKYDOCm-4">
          <mxGeometry relative="1" as="geometry" />
        </mxCell>
        <mxCell id="16CsraEskKoKWdKYDOCm-6" value="Persistent Volume Claim&lt;br&gt;4Gi" style="aspect=fixed;sketch=0;html=1;dashed=0;whitespace=wrap;verticalLabelPosition=bottom;verticalAlign=top;fillColor=#2875E2;strokeColor=#ffffff;points=[[0.005,0.63,0],[0.1,0.2,0],[0.9,0.2,0],[0.5,0,0],[0.995,0.63,0],[0.72,0.99,0],[0.5,1,0],[0.28,0.99,0]];shape=mxgraph.kubernetes.icon2;prIcon=pvc" vertex="1" parent="1">
          <mxGeometry x="374.16" y="453" width="38.55" height="37" as="geometry" />
        </mxCell>
        <mxCell id="16CsraEskKoKWdKYDOCm-14" value="" style="edgeStyle=orthogonalEdgeStyle;rounded=0;orthogonalLoop=1;jettySize=auto;html=1;" edge="1" parent="1" source="16CsraEskKoKWdKYDOCm-10" target="16CsraEskKoKWdKYDOCm-13">
          <mxGeometry relative="1" as="geometry" />
        </mxCell>
        <mxCell id="16CsraEskKoKWdKYDOCm-10" value="Container&lt;br&gt;Image- Photo Uploader APP" style="whiteSpace=wrap;html=1;verticalAlign=top;fillColor=#d5e8d4;strokeColor=#82b366;sketch=0;dashed=0;" vertex="1" parent="1">
          <mxGeometry x="450" y="250" width="160" height="40" as="geometry" />
        </mxCell>
        <mxCell id="16CsraEskKoKWdKYDOCm-13" value="" style="whiteSpace=wrap;html=1;verticalAlign=top;fillColor=#AEB9C9;strokeColor=#6c8ebf;sketch=0;dashed=0;gradientColor=#2F34D0;" vertex="1" parent="1">
          <mxGeometry x="460" y="320" width="150" height="230" as="geometry" />
        </mxCell>
        <mxCell id="16CsraEskKoKWdKYDOCm-15" style="edgeStyle=orthogonalEdgeStyle;rounded=0;orthogonalLoop=1;jettySize=auto;html=1;entryX=0.5;entryY=1;entryDx=0;entryDy=0;entryPerimeter=0;" edge="1" parent="1" source="16CsraEskKoKWdKYDOCm-6" target="16CsraEskKoKWdKYDOCm-2">
          <mxGeometry relative="1" as="geometry" />
        </mxCell>
        <mxCell id="16CsraEskKoKWdKYDOCm-16" value="" style="image;sketch=0;aspect=fixed;html=1;points=[];align=center;fontSize=12;image=img/lib/mscae/Docker.svg;" vertex="1" parent="1">
          <mxGeometry x="516.7" y="320" width="36.59" height="30" as="geometry" />
        </mxCell>
        <mxCell id="16CsraEskKoKWdKYDOCm-17" value="volumes:" style="rounded=1;whiteSpace=wrap;html=1;fillColor=#fff2cc;gradientColor=#ffd966;strokeColor=#d6b656;" vertex="1" parent="1">
          <mxGeometry x="460" y="470" width="75" height="20" as="geometry" />
        </mxCell>
        <mxCell id="16CsraEskKoKWdKYDOCm-18" value="name: my-volume&lt;br&gt;persistentVolumeClaim:&lt;br&gt;claimName: my-pvc" style="rounded=0;whiteSpace=wrap;html=1;fillColor=#f5f5f5;gradientColor=#b3b3b3;strokeColor=#666666;align=left;" vertex="1" parent="1">
          <mxGeometry x="480" y="490" width="130" height="60" as="geometry" />
        </mxCell>
        <mxCell id="16CsraEskKoKWdKYDOCm-19" value="volumeMount:" style="rounded=1;whiteSpace=wrap;html=1;fillColor=#fff2cc;gradientColor=#ffd966;strokeColor=#d6b656;" vertex="1" parent="1">
          <mxGeometry x="460" y="380" width="75" height="20" as="geometry" />
        </mxCell>
        <mxCell id="16CsraEskKoKWdKYDOCm-20" value="-name: my-volume&lt;br&gt;&amp;nbsp;mountPath: /app/photos" style="rounded=0;whiteSpace=wrap;html=1;fillColor=#f5f5f5;gradientColor=#b3b3b3;strokeColor=#666666;align=left;" vertex="1" parent="1">
          <mxGeometry x="470" y="400" width="140" height="60" as="geometry" />
        </mxCell>
        <mxCell id="16CsraEskKoKWdKYDOCm-21" value="&lt;font style=&quot;font-size: 9px;&quot;&gt;&lt;b&gt;Secrets&lt;br&gt;my-secrete&lt;br&gt;storageAccountKey&lt;br&gt;storageAccountName&lt;/b&gt;&lt;/font&gt;" style="aspect=fixed;sketch=0;html=1;dashed=0;whitespace=wrap;verticalLabelPosition=bottom;verticalAlign=top;fillColor=#2875E2;strokeColor=#ffffff;points=[[0.005,0.63,0],[0.1,0.2,0],[0.9,0.2,0],[0.5,0,0],[0.995,0.63,0],[0.72,0.99,0],[0.5,1,0],[0.28,0.99,0]];shape=mxgraph.kubernetes.icon2;prIcon=secret;align=left;" vertex="1" parent="1">
          <mxGeometry x="300" y="330" width="31.25" height="30" as="geometry" />
        </mxCell>
        <mxCell id="16CsraEskKoKWdKYDOCm-25" style="edgeStyle=orthogonalEdgeStyle;rounded=0;orthogonalLoop=1;jettySize=auto;html=1;entryX=0.9;entryY=0.2;entryDx=0;entryDy=0;entryPerimeter=0;" edge="1" parent="1" source="16CsraEskKoKWdKYDOCm-21" target="16CsraEskKoKWdKYDOCm-4">
          <mxGeometry relative="1" as="geometry" />
        </mxCell>
      </root>
    </mxGraphModel>
  </diagram>
</mxfile>
